<svg xmlns="http://www.w3.org/2000/svg" viewBox="0 0 1200 700" fill="none">
  <rect width="1200" height="700" fill="#081C2E"/>
  <rect x="56" y="56" width="1088" height="588" rx="40" fill="url(#g1)"/>
  <path d="M286 188h628" stroke="#D8C28A" stroke-width="18" stroke-linecap="round"/>
  <path d="M600 188v258" stroke="#D8C28A" stroke-width="18" stroke-linecap="round"/>
  <path d="M402 230c0 108-68 164-154 192 31 70 86 125 154 156 68-31 123-86 154-156-86-28-154-84-154-192Z" fill="#F3E7C2" fill-opacity="0.96"/>
  <path d="M798 230c0 108-68 164-154 192 31 70 86 125 154 156 68-31 123-86 154-156-86-28-154-84-154-192Z" fill="#F3E7C2" fill-opacity="0.96"/>
  <rect x="166" y="486" width="868" height="70" rx="35" fill="#0D3B5D" opacity="0.84"/>
  <circle cx="968" cy="150" r="78" fill="#1E6F97" opacity="0.28"/>
  <defs>
    <linearGradient id="g1" x1="56" y1="56" x2="1144" y2="644" gradientUnits="userSpaceOnUse">
      <stop stop-color="#103B5B"/>
      <stop offset="1" stop-color="#166C92"/>
    </linearGradient>
  </defs>
</svg>